# xmcd
#
# Track frame offsets:
#	150
#	9777
#	28166
#	40342
#	59983
#	75748
#	91438
#	105894
#	120859
#	136434
#	149394
#	166490
#	182220
#	197884
#	211531
#	226296
#	241867
#	256585
#	270679
#	289113
#	298760
#	317212
#	328612
#	339146
#
# Disc length: 4746 seconds
#
# Revision: 1
# Processed by: cddbd v1.5.2PL0 Copyright (c) Steve Scherf et al.
# Submitted via: audiograbber 1.83.01
#
DISCID=54128818
DTITLE=Glenn Erickson - Diamondback Records Compilation 10
DYEAR=2014
DGENRE=
TTITLE0=Theme From Dukes Of Hazard -B Jeff Stone
TTITLE1=The Hawk -Katrine Archer
TTITLE2=Arizona Walz -Rex Allen Jr
TTITLE3=Once Upon A Time -Billy D Williams
TTITLE4=Back To My Boots -Clint Taylor
TTITLE5=No Place For Me -Marcella Tambouris 
TTITLE6=Load On MY MInd -Trevor V Stevens
TTITLE7=Apparently Not -Ann Pascoe
TTITLE8=Air That I Breathe -Rex Allen
TTITLE9=My One Redeeming Grace -Phillip Clarkson
TTITLE10=Run The Show -Karen Eden
TTITLE11=Hard To Read -Bob Runk
TTITLE12=Second Fiddle -Chris Anderson
TTITLE13=My Halloween Queen -Ray Barnett
TTITLE14=No, I´m Not Leaving -Hermann Lammers Meyer
TTITLE15=Vegas Casino Blues -Glenn Erickson
TTITLE16=Shadows Of My Mind -Peter Frew
TTITLE17=Pathway Of Tears -Fraser Newcombe
TTITLE18=Old Weathered Barn -Ray Barnett
TTITLE19=I Love Paris -Walter Wiz Walsh
TTITLE20=Riding On The Wind -Michael T
TTITLE21=Hello Darlin´ -Hunting Lady Kate
TTITLE22=Nature Boy -Glenn Erickson
TTITLE23=What If -Patricia Welch
EXTD=
EXTT0=
EXTT1=
EXTT2=
EXTT3=
EXTT4=
EXTT5=
EXTT6=
EXTT7=
EXTT8=
EXTT9=
EXTT10=
EXTT11=
EXTT12=
EXTT13=
EXTT14=
EXTT15=
EXTT16=
EXTT17=
EXTT18=
EXTT19=
EXTT20=
EXTT21=
EXTT22=
EXTT23=
PLAYORDER=
